<svg width="32" height="32" viewBox="0 0 32 32" fill="none" xmlns="http://www.w3.org/2000/svg">
<path d="M16 19.8181C18.1087 19.8181 19.8182 18.1087 19.8182 15.9999C19.8182 13.8912 18.1087 12.1818 16 12.1818C13.8913 12.1818 12.1818 13.8912 12.1818 15.9999C12.1818 18.1087 13.8913 19.8181 16 19.8181Z" stroke="black" stroke-width="2.54545" stroke-linecap="round" stroke-linejoin="round"/>
<path d="M25.4182 19.8182C25.2488 20.2021 25.1982 20.6279 25.2731 21.0407C25.3479 21.4536 25.5448 21.8346 25.8382 22.1345L25.9145 22.2109C26.1512 22.4473 26.339 22.728 26.4671 23.0371C26.5952 23.3461 26.6611 23.6773 26.6611 24.0118C26.6611 24.3463 26.5952 24.6776 26.4671 24.9866C26.339 25.2956 26.1512 25.5763 25.9145 25.8127C25.6781 26.0494 25.3974 26.2371 25.0884 26.3652C24.7794 26.4933 24.4481 26.5593 24.1136 26.5593C23.7791 26.5593 23.4479 26.4933 23.1389 26.3652C22.8299 26.2371 22.5491 26.0494 22.3127 25.8127L22.2364 25.7364C21.9364 25.443 21.5554 25.2461 21.1426 25.1713C20.7297 25.0964 20.3039 25.1469 19.92 25.3164C19.5436 25.4777 19.2225 25.7456 18.9964 26.087C18.7703 26.4285 18.6489 26.8286 18.6473 27.2382V27.4545C18.6473 28.1296 18.3791 28.7771 17.9017 29.2545C17.4244 29.7318 16.7769 30 16.1018 30C15.4267 30 14.7793 29.7318 14.3019 29.2545C13.8245 28.7771 13.5564 28.1296 13.5564 27.4545V27.34C13.5465 26.9187 13.4102 26.5102 13.165 26.1674C12.9199 25.8247 12.5773 25.5636 12.1818 25.4182C11.7979 25.2488 11.3721 25.1982 10.9593 25.2731C10.5464 25.3479 10.1654 25.5448 9.86545 25.8382L9.78909 25.9145C9.55269 26.1512 9.27195 26.339 8.96294 26.4671C8.65393 26.5952 8.32269 26.6611 7.98818 26.6611C7.65367 26.6611 7.32244 26.5952 7.01342 26.4671C6.70441 26.339 6.42368 26.1512 6.18727 25.9145C5.95061 25.6781 5.76286 25.3974 5.63476 25.0884C5.50666 24.7794 5.44072 24.4481 5.44072 24.1136C5.44072 23.7791 5.50666 23.4479 5.63476 23.1389C5.76286 22.8299 5.95061 22.5491 6.18727 22.3127L6.26364 22.2364C6.55705 21.9364 6.75387 21.5554 6.82873 21.1426C6.90359 20.7297 6.85306 20.3039 6.68364 19.92C6.5223 19.5436 6.25442 19.2225 5.91296 18.9964C5.5715 18.7703 5.17136 18.6489 4.76182 18.6473H4.54545C3.87036 18.6473 3.22291 18.3791 2.74555 17.9017C2.26818 17.4244 2 16.7769 2 16.1018C2 15.4267 2.26818 14.7793 2.74555 14.3019C3.22291 13.8245 3.87036 13.5564 4.54545 13.5564H4.66C5.08127 13.5465 5.48982 13.4102 5.83256 13.165C6.1753 12.9199 6.43637 12.5773 6.58182 12.1818C6.75124 11.7979 6.80178 11.3721 6.72691 10.9593C6.65205 10.5464 6.45523 10.1654 6.16182 9.86545L6.08545 9.78909C5.84879 9.55269 5.66104 9.27195 5.53294 8.96294C5.40484 8.65393 5.33891 8.32269 5.33891 7.98818C5.33891 7.65367 5.40484 7.32244 5.53294 7.01342C5.66104 6.70441 5.84879 6.42368 6.08545 6.18727C6.32186 5.95061 6.60259 5.76286 6.91161 5.63476C7.22062 5.50666 7.55185 5.44072 7.88636 5.44072C8.22088 5.44072 8.55211 5.50666 8.86112 5.63476C9.17013 5.76286 9.45087 5.95061 9.68727 6.18727L9.76364 6.26364C10.0636 6.55705 10.4446 6.75387 10.8574 6.82873C11.2703 6.90359 11.6961 6.85306 12.08 6.68364H12.1818C12.5583 6.5223 12.8793 6.25442 13.1054 5.91296C13.3316 5.5715 13.4529 5.17136 13.4545 4.76182V4.54545C13.4545 3.87036 13.7227 3.22291 14.2001 2.74555C14.6775 2.26818 15.3249 2 16 2C16.6751 2 17.3225 2.26818 17.7999 2.74555C18.2773 3.22291 18.5455 3.87036 18.5455 4.54545V4.66C18.5471 5.06955 18.6684 5.46968 18.8946 5.81114C19.1207 6.1526 19.4417 6.42048 19.8182 6.58182C20.2021 6.75124 20.6279 6.80178 21.0407 6.72691C21.4536 6.65205 21.8346 6.45523 22.1345 6.16182L22.2109 6.08545C22.4473 5.84879 22.728 5.66104 23.0371 5.53294C23.3461 5.40484 23.6773 5.33891 24.0118 5.33891C24.3463 5.33891 24.6776 5.40484 24.9866 5.53294C25.2956 5.66104 25.5763 5.84879 25.8127 6.08545C26.0494 6.32186 26.2371 6.60259 26.3652 6.91161C26.4933 7.22062 26.5593 7.55185 26.5593 7.88636C26.5593 8.22088 26.4933 8.55211 26.3652 8.86112C26.2371 9.17013 26.0494 9.45087 25.8127 9.68727L25.7364 9.76364C25.443 10.0636 25.2461 10.4446 25.1713 10.8574C25.0964 11.2703 25.1469 11.6961 25.3164 12.08V12.1818C25.4777 12.5583 25.7456 12.8793 26.087 13.1054C26.4285 13.3316 26.8286 13.4529 27.2382 13.4545H27.4545C28.1296 13.4545 28.7771 13.7227 29.2545 14.2001C29.7318 14.6775 30 15.3249 30 16C30 16.6751 29.7318 17.3225 29.2545 17.7999C28.7771 18.2773 28.1296 18.5455 27.4545 18.5455H27.34C26.9305 18.5471 26.5303 18.6684 26.1889 18.8946C25.8474 19.1207 25.5795 19.4417 25.4182 19.8182V19.8182Z" stroke="black" stroke-width="2.54545" stroke-linecap="round" stroke-linejoin="round"/>
</svg>
