<svg width="18" height="18" viewBox="0 0 18 18" fill="none" xmlns="http://www.w3.org/2000/svg">
<path d="M5.99999 8.25027C5.85166 8.25027 5.70665 8.29426 5.58331 8.37667C5.45998 8.45908 5.36385 8.57622 5.30708 8.71326C5.25032 8.85031 5.23546 9.00111 5.2644 9.14659C5.29334 9.29208 5.36477 9.42572 5.46966 9.5306C5.57455 9.63549 5.70819 9.70692 5.85367 9.73586C5.99916 9.7648 6.14996 9.74995 6.287 9.69318C6.42405 9.63642 6.54118 9.54029 6.62359 9.41695C6.706 9.29362 6.74999 9.14861 6.74999 9.00027C6.74999 8.80136 6.67097 8.6106 6.53032 8.46994C6.38967 8.32929 6.1989 8.25027 5.99999 8.25027ZM8.99999 8.25027C8.85166 8.25027 8.70665 8.29426 8.58331 8.37667C8.45998 8.45908 8.36385 8.57622 8.30708 8.71326C8.25032 8.85031 8.23546 9.00111 8.2644 9.14659C8.29334 9.29208 8.36477 9.42572 8.46966 9.5306C8.57455 9.63549 8.70819 9.70692 8.85367 9.73586C8.99916 9.7648 9.14996 9.74995 9.287 9.69318C9.42405 9.63642 9.54118 9.54029 9.62359 9.41695C9.70601 9.29362 9.74999 9.14861 9.74999 9.00027C9.74999 8.80136 9.67097 8.6106 9.53032 8.46994C9.38967 8.32929 9.1989 8.25027 8.99999 8.25027ZM12 8.25027C11.8517 8.25027 11.7067 8.29426 11.5833 8.37667C11.46 8.45908 11.3638 8.57622 11.3071 8.71326C11.2503 8.85031 11.2355 9.00111 11.2644 9.14659C11.2933 9.29208 11.3648 9.42572 11.4697 9.5306C11.5746 9.63549 11.7082 9.70692 11.8537 9.73586C11.9992 9.7648 12.15 9.74995 12.287 9.69318C12.424 9.63642 12.5412 9.54029 12.6236 9.41695C12.706 9.29362 12.75 9.14861 12.75 9.00027C12.75 8.80136 12.671 8.6106 12.5303 8.46994C12.3897 8.32929 12.1989 8.25027 12 8.25027ZM8.99999 1.50027C8.01508 1.50027 7.03981 1.69427 6.12987 2.07118C5.21992 2.44809 4.39313 3.00053 3.69669 3.69697C2.29017 5.1035 1.49999 7.01115 1.49999 9.00027C1.49343 10.7321 2.09309 12.4117 3.19499 13.7478L1.69499 15.2478C1.59092 15.3532 1.52043 15.4872 1.4924 15.6327C1.46436 15.7782 1.48006 15.9287 1.53749 16.0653C1.59978 16.2002 1.70077 16.3136 1.82763 16.3911C1.95448 16.4685 2.10149 16.5065 2.24999 16.5003H8.99999C10.9891 16.5003 12.8968 15.7101 14.3033 14.3036C15.7098 12.8971 16.5 10.9894 16.5 9.00027C16.5 7.01115 15.7098 5.1035 14.3033 3.69697C12.8968 2.29045 10.9891 1.50027 8.99999 1.50027ZM8.99999 15.0003H4.05749L4.75499 14.3028C4.82586 14.2333 4.88223 14.1505 4.92086 14.0591C4.95948 13.9677 4.97958 13.8695 4.97999 13.7703C4.97717 13.5724 4.8963 13.3837 4.75499 13.2453C3.77293 12.2643 3.16137 10.9732 3.02451 9.59187C2.88765 8.21056 3.23395 6.82453 4.00441 5.66992C4.77487 4.5153 5.92183 3.66354 7.24988 3.25975C8.57792 2.85597 10.0049 2.92513 11.2877 3.45546C12.5704 3.98579 13.6296 4.94448 14.2848 6.16819C14.94 7.39191 15.1506 8.80493 14.8808 10.1665C14.611 11.5281 13.8775 12.7541 12.8051 13.6355C11.7328 14.5169 10.3881 14.9992 8.99999 15.0003Z" fill="black"/>
</svg>
