<svg width="22" height="22" viewBox="0 0 22 22" fill="none" xmlns="http://www.w3.org/2000/svg">
<path d="M20.6732 18.5534C20.0303 17.9802 19.4675 17.3232 18.9999 16.6C18.4894 15.6017 18.1834 14.5115 18.0999 13.3934V10.1C18.1043 8.34376 17.4672 6.64633 16.3084 5.32666C15.1495 4.007 13.5486 3.15592 11.8065 2.93335V2.07335C11.8065 1.83731 11.7128 1.61093 11.5459 1.44402C11.379 1.27712 11.1526 1.18335 10.9165 1.18335C10.6805 1.18335 10.4541 1.27712 10.2872 1.44402C10.1203 1.61093 10.0265 1.83731 10.0265 2.07335V2.94668C8.30004 3.1853 6.71852 4.04152 5.57489 5.35675C4.43126 6.67199 3.80302 8.35711 3.80654 10.1V13.3934C3.72304 14.5115 3.41705 15.6017 2.90654 16.6C2.44712 17.3216 1.89333 17.9785 1.25987 18.5534C1.18876 18.6158 1.13176 18.6927 1.09268 18.7789C1.0536 18.8651 1.03332 18.9587 1.0332 19.0534V19.96C1.0332 20.1368 1.10344 20.3064 1.22847 20.4314C1.35349 20.5564 1.52306 20.6267 1.69987 20.6267H20.2332C20.41 20.6267 20.5796 20.5564 20.7046 20.4314C20.8296 20.3064 20.8999 20.1368 20.8999 19.96V19.0534C20.8997 18.9587 20.8795 18.8651 20.8404 18.7789C20.8013 18.6927 20.7443 18.6158 20.6732 18.5534ZM2.41987 19.2934C3.04014 18.6942 3.58627 18.0227 4.04654 17.2934C4.68961 16.0877 5.06482 14.7574 5.14654 13.3934V10.1C5.1201 9.31871 5.25115 8.54007 5.5319 7.81046C5.81265 7.08086 6.23734 6.41521 6.7807 5.85315C7.32406 5.2911 7.97496 4.84413 8.69466 4.53887C9.41435 4.2336 10.1881 4.07629 10.9699 4.07629C11.7516 4.07629 12.5254 4.2336 13.2451 4.53887C13.9648 4.84413 14.6157 5.2911 15.159 5.85315C15.7024 6.41521 16.1271 7.08086 16.4078 7.81046C16.6886 8.54007 16.8196 9.31871 16.7932 10.1V13.3934C16.8749 14.7574 17.2501 16.0877 17.8932 17.2934C18.3535 18.0227 18.8996 18.6942 19.5199 19.2934H2.41987Z" fill="#151D48" stroke="black"/>
</svg>
