<svg width="18" height="18" viewBox="0 0 18 18" fill="none" xmlns="http://www.w3.org/2000/svg">
<g clip-path="url(#clip0_402_2922)">
<path d="M5.25 16.5003H3C2.60218 16.5003 2.22064 16.3422 1.93934 16.0609C1.65804 15.7796 1.5 15.3981 1.5 15.0003V9.75027C1.5 9.35245 1.65804 8.97092 1.93934 8.68961C2.22064 8.40831 2.60218 8.25027 3 8.25027H5.25M10.5 6.75027V3.75027C10.5 3.15354 10.2629 2.58124 9.84099 2.15928C9.41903 1.73733 8.84674 1.50027 8.25 1.50027L5.25 8.25027V16.5003H13.71C14.0717 16.5044 14.4228 16.3776 14.6984 16.1433C14.9741 15.909 15.1558 15.583 15.21 15.2253L16.245 8.47527C16.2776 8.26029 16.2631 8.04079 16.2025 7.83196C16.1419 7.62314 16.0366 7.43 15.8939 7.26591C15.7512 7.10183 15.5746 6.97072 15.3762 6.88169C15.1778 6.79265 14.9624 6.74781 14.745 6.75027H10.5Z" stroke="black" stroke-width="2" stroke-linecap="round" stroke-linejoin="round"/>
</g>
<defs>
<clipPath id="clip0_402_2922">
<rect width="18" height="18" fill="white" transform="translate(0 0.000274658)"/>
</clipPath>
</defs>
</svg>
